<svg width="114" height="114" viewBox="0 0 114 114" fill="none" xmlns="http://www.w3.org/2000/svg">
<path d="M19 19H47.5V47.5H19V19ZM95 19V47.5H66.5V19H95ZM66.5 71.25H76V61.75H66.5V52.25H76V61.75H85.5V52.25H95V61.75H85.5V71.25H95V85.5H85.5V95H76V85.5H61.75V95H52.25V76H66.5V71.25ZM76 71.25V85.5H85.5V71.25H76ZM19 95V66.5H47.5V95H19ZM28.5 28.5V38H38V28.5H28.5ZM76 28.5V38H85.5V28.5H76ZM28.5 76V85.5H38V76H28.5ZM19 52.25H28.5V61.75H19V52.25ZM42.75 52.25H61.75V71.25H52.25V61.75H42.75V52.25ZM52.25 28.5H61.75V47.5H52.25V28.5ZM9.5 9.5V28.5H0V9.5C0 6.98044 1.00089 4.56408 2.78249 2.78249C4.56408 1.00089 6.98044 0 9.5 0L28.5 0V9.5H9.5ZM104.5 0C107.02 0 109.436 1.00089 111.218 2.78249C112.999 4.56408 114 6.98044 114 9.5V28.5H104.5V9.5H85.5V0H104.5ZM9.5 85.5V104.5H28.5V114H9.5C6.98044 114 4.56408 112.999 2.78249 111.218C1.00089 109.436 0 107.02 0 104.5V85.5H9.5ZM104.5 104.5V85.5H114V104.5C114 107.02 112.999 109.436 111.218 111.218C109.436 112.999 107.02 114 104.5 114H85.5V104.5H104.5Z" fill="black"/>
</svg>
